:version 1.10
:name ASF
:units
  mass 1
  length 1
  angle deg
:documentation
  ASF file generated by Kaydara
:root
  axis xyz
  order  tx ty tz rx ry rz
  position 0 0 0
  orientation 0 0 0
:bonedata
  begin
    id 1
    name RightUpLegDummy
    direction -1 2.30186e-007 8.31532e-007
    length 4.46685
    axis 0 0 0 xyz
  end
  begin
    id 2
    name RightUpLeg
    direction -2.30187e-007 -1 1.24343e-010
    length 16.4045
    axis -3.49089 -0.000906625 0.000286804 xyz
    dof rx ry rz
  end
  begin
    id 3
    name RightLeg
    direction -2.30181e-007 -1 -4.17157e-009
    length 17.5097
    axis 3.68512 0.0193738 -0.131023 xyz
    dof rx ry rz
  end
  begin
    id 4
    name RightFoot
    direction 8.31421e-007 -4.51202e-011 1
    length 6.49508
    axis 4.81691e-005 -0.120479 -0.188788 xyz
    dof rx ry rz
  end
  begin
    id 5
    name RightToes
    direction 0.00124746 -0.014064 0.9999
    length 3.85082
    axis 0.000481921 0.542163 -0.142578 xyz
    dof rx ry rz
  end
  begin
    id 6
    name SpineDummy
    direction 0.0717043 0.9409 -0.331007
    length 10.0032
    axis 0 0 0 xyz
  end
  begin
    id 7
    name Spine
    direction 2.30186e-007 1 4.58806e-011
    length 9.84055
    axis -0.001389 0.000121418 2.40972e-006 xyz
    dof rx ry rz
  end
  begin
    id 8
    name Spine1
    direction 0 0 0
    length 0
    axis -0.001389 0.000121451 1.30017e-006 xyz
    dof rx ry rz
  end
  begin
    id 9
    name HEadDummy
    direction -0.00347485 0.950688 -0.310128
    length 8.00997
    axis -0.001389 0.000121451 1.30017e-006 xyz
  end
  begin
    id 10
    name HEad
    direction -0.0222688 0.980941 0.193023
    length 5.12695
    axis -0.001389 0.000121451 1.30017e-006 xyz
    dof rx ry rz
  end
  begin
    id 11
    name LeftShoulder1Dummy
    direction 0.988871 0.146793 -0.0242004
    length 3.5792
    axis -0.001389 0.000121451 1.30017e-006 xyz
  end
  begin
    id 12
    name LeftShoulder1
    direction 0.993832 0.108932 0.020779
    length 4.16823
    axis -0.001389 0.000121451 1.30017e-006 xyz
    dof rx ry rz
  end
  begin
    id 13
    name LeftArm
    direction 1 3.44807e-006 -8.31404e-007
    length 9.91437
    axis -23.1894 0.134784 0.967509 xyz
    dof rx ry rz
  end
  begin
    id 14
    name LeftForeArm
    direction 1 3.44842e-006 -8.31581e-007
    length 9.08575
    axis -9.91835 -0.06569 -0.177793 xyz
    dof rx ry rz
  end
  begin
    id 15
    name LeftHand
    direction 0.992938 -0.0411636 0.11126
    length 5.32135
    axis -0.00960232 -0.00340091 0.185173 xyz
    dof rx ry rz
  end
  begin
    id 16
    name RightShoulderDummy
    direction -0.988871 0.146793 -0.0241962
    length 3.5792
    axis -0.001389 0.000121451 1.30017e-006 xyz
  end
  begin
    id 17
    name RightShoulder
    direction -0.993832 0.108933 0.0207785
    length 4.16823
    axis 0.215806 0.000203643 -0.0068026 xyz
    dof rx ry rz
  end
  begin
    id 18
    name RightArm
    direction -1 3.90912e-006 8.31284e-007
    length 9.91437
    axis -23.2009 -0.134239 -0.964101 xyz
    dof rx ry rz
  end
  begin
    id 19
    name RightForeArm
    direction -1 3.90882e-006 8.31502e-007
    length 9.08575
    axis -9.92322 0.0658061 0.178867 xyz
    dof rx ry rz
  end
  begin
    id 20
    name RightHand
    direction -0.992843 -0.0414603 0.112003
    length 5.28593
    axis -0.00960638 0.00330671 -0.185228 xyz
    dof rx ry rz
  end
  begin
    id 21
    name LeftUpLegDummy
    direction 1 -2.30186e-007 -8.31532e-007
    length 4.46685
    axis 0 0 0 xyz
  end
  begin
    id 22
    name LeftUpLeg
    direction -2.30187e-007 -1 6.00931e-010
    length 16.4045
    axis -3.48766 0.00143442 -0.000524262 xyz
    dof rx ry rz
  end
  begin
    id 23
    name LeftLeg
    direction -2.30187e-007 -1 1.6669e-009
    length 17.5097
    axis 3.68178 -0.00654042 -0.000285133 xyz
    dof rx ry rz
  end
  begin
    id 24
    name LeftFoot
    direction 8.31532e-007 -4.54478e-011 1
    length 6.49508
    axis 1.87233e-006 4.66016e-005 -8.6538e-006 xyz
    dof rx ry rz
  end
  begin
    id 25
    name LeftToes
    direction 0.00818058 -0.00485161 0.999955
    length 3.85048
    axis 1.06247e-005 4.65869e-005 -8.65513e-006 xyz
    dof rx ry rz
  end
:hierarchy
  begin
    root RightUpLegDummy SpineDummy LeftUpLegDummy
    RightUpLegDummy RightUpLeg
    RightUpLeg RightLeg
    RightLeg RightFoot
    RightFoot RightToes
    SpineDummy Spine
    Spine Spine1
    Spine1 HEadDummy LeftShoulder1Dummy RightShoulderDummy
    HEadDummy HEad
    LeftShoulder1Dummy LeftShoulder1
    LeftShoulder1 LeftArm
    LeftArm LeftForeArm
    LeftForeArm LeftHand
    RightShoulderDummy RightShoulder
    RightShoulder RightArm
    RightArm RightForeArm
    RightForeArm RightHand
    LeftUpLegDummy LeftUpLeg
    LeftUpLeg LeftLeg
    LeftLeg LeftFoot
    LeftFoot LeftToes
  end

:SAMPLES-PER-SECOND 30
:FULLY-SPECIFIED
:DEGREES
142
root  13.8873 30.6957 -0.597745 -169.634 87.1921 178.871
RightUpLeg  -26.176 -2.46793 -22.951
RightLeg  37.4916 -7.1447 -4.7769
RightFoot  -7.6692 0.0958564 1.80777
RightToes  -25.8288 -0.116278 -0.221956
Spine  14.5344 -1.14846 2.88999
Spine1  25.6519 -0.828652 2.61803
HEad  28.1008 -22.0459 13.8607
LeftShoulder1  0 -2.42657e-020 -4.95415e-022
LeftArm  6.98826 -16.0221 -96.8012
LeftForeArm  19.6243 -34.4689 -6.94875
LeftHand  0.303352 -4.09509 -8.85444
RightShoulder  0 2.42657e-020 1.07489e-018
RightArm  -49.9803 21.2519 77.6797
RightForeArm  64.8288 39.6584 8.3476
RightHand  -6.19819 23.6082 -28.686
LeftUpLeg  -44.6364 18.1032 0.735249
LeftLeg  47.1691 -3.22107 -3.05759
LeftFoot  -3.59166 -0.0118561 -0.378152
LeftToes  -21.4305 2.37847e-007 4.89147e-008
143
root  13.7429 30.2316 0.211857 106.284 89.1271 94.9264
RightUpLeg  -28.5038 -6.82502 -24.3493
RightLeg  41.3779 -9.12813 -7.00931
RightFoot  -6.49135 0.116162 2.42601
RightToes  -24.394 -0.107284 -0.211178
Spine  15.4281 0.46878 2.86414
Spine1  26.6674 3.92825 0.282361
HEad  30.0027 -20.7477 13.1336
LeftShoulder1  0 -2.42657e-020 -4.95415e-022
LeftArm  4.0051 -17.6123 -98.8052
LeftForeArm  18.4858 -31.8938 -6.29414
LeftHand  0.210994 -3.30881 -7.68134
RightShoulder  0 2.42657e-020 1.07489e-018
RightArm  -55.4536 31.3662 71.1043
RightForeArm  64.8751 21.0446 3.82761
RightHand  -3.27531 25.0294 -14.3127
LeftUpLeg  -45.5778 21.0326 1.19393
LeftLeg  49.4545 -3.39426 -3.48802
LeftFoot  -3.97543 -0.0152272 -0.438754
LeftToes  -23.7843 2.37847e-007 4.89147e-008
144
root  13.5845 29.9562 1.10441 58.4154 87.3853 47.1273
RightUpLeg  -30.1835 -14.2217 -24.3125
RightLeg  44.5505 -10.8973 -9.31358
RightFoot  -6.41677 0.152688 3.10125
RightToes  -23.4784 -0.101686 -0.204184
Spine  15.767 1.21594 2.5164
Spine1  26.6582 6.07345 -0.951913
HEad  31.2013 -18.9659 12.2253
LeftShoulder1  0 -2.42657e-020 -4.95415e-022
LeftArm  -0.0638607 -18.7082 -99.837
LeftForeArm  19.1535 -29.7729 -5.78326
LeftHand  0.203179 -3.11775 -7.84278
RightShoulder  0 2.42657e-020 1.07489e-018
RightArm  -65.3985 40.0931 63.9139
RightForeArm  71.5159 3.01104 0.466641
RightHand  1.69643 21.75 9.18604
LeftUpLeg  -45.4627 22.7906 1.72907
LeftLeg  49.5506 -3.50985 -3.61821
LeftFoot  -3.22901 -0.0163758 -0.580996
LeftToes  -25.8513 2.37847e-007 4.89147e-008
145
root  13.4501 29.9498 2.13001 59.2899 86.0207 48.3031
RightUpLeg  -30.5068 -22.7841 -22.7763
RightLeg  46.0683 -11.6613 -10.4775
RightFoot  -5.6322 0.135119 3.12431
RightToes  -26.1618 -0.118403 -0.224424
Spine  15.3724 1.11927 1.65291
Spine1  25.6267 5.29994 -1.09035
HEad  32.6292 -17.0944 12.0435
LeftShoulder1  0 -2.42657e-020 -4.95415e-022
LeftArm  -2.96483 -19.4779 -98.6424
LeftForeArm  19.7283 -28.2137 -5.4218
LeftHand  0.193623 -3.10182 -7.52884
RightShoulder  0 2.42657e-020 1.07489e-018
RightArm  -50.3999 40.3927 65.9488
RightForeArm  61.197 -0.182088 -0.0675724
RightHand  2.12212 12.1948 20.0528
LeftUpLeg  -43.7498 23.3525 2.68836
LeftLeg  47.131 -3.56851 -3.38104
LeftFoot  -1.52815 -0.0103477 -0.775898
LeftToes  -28.6036 2.37847e-007 4.89147e-008
146
root  13.3918 30.1185 3.3693 59.8381 84.9639 49.0279
RightUpLeg  -30.0467 -27.6848 -21.1351
RightLeg  45.9493 -11.9164 -10.6537
RightFoot  -5.95247 0.145698 3.17968
RightToes  -29.5654 -0.14094 -0.248934
Spine  14.488 0.820623 0.640764
Spine1  23.9456 4.2589 -2.0214
HEad  34.8872 -14.3102 11.9695
LeftShoulder1  0 -2.42657e-020 -4.95415e-022
LeftArm  -8.41353 -19.0558 -95.8745
LeftForeArm  21.957 -28.193 -5.41721
LeftHand  0.240686 -3.82384 -7.58433
RightShoulder  0 2.42657e-020 1.07489e-018
RightArm  -39.8195 36.759 72.6074
RightForeArm  55.2388 3.4619 0.583452
RightHand  0.886808 5.39233 19.0578
LeftUpLeg  -40.967 23.3067 4.34115
LeftLeg  43.1384 -3.10842 -2.5614
LeftFoot  -1.59715 -0.0110588 -0.793384
LeftToes  -31.9139 2.37847e-007 4.89147e-008
147
root  13.3488 30.3738 4.84893 51.972 84.6558 41.0992
RightUpLeg  -29.9951 -28.2412 -18.6539
RightLeg  44.9753 -10.5102 -9.12708
RightFoot  -2.28382 0.0312799 1.94732
RightToes  -38.7718 -0.208747 -0.30808
Spine  13.3632 0.613228 0.226704
Spine1  22.1592 3.49298 -2.56906
HEad  36.7622 -11.0347 11.0702
LeftShoulder1  0 -2.42657e-020 -4.95415e-022
LeftArm  -13.9303 -17.9899 -92.7246
LeftForeArm  19.8657 -29.7157 -5.76991
LeftHand  0.183014 -3.46069 -6.43541
RightShoulder  0 2.42657e-020 1.07489e-018
RightArm  -61.7024 35.4094 79.1692
RightForeArm  87.8029 1.39874 0.136661
RightHand  1.30031 13.9622 10.9644
LeftUpLeg  -37.8225 22.6292 7.46381
LeftLeg  38.6636 -1.70742 -1.19949
LeftFoot  -3.88817 -0.0242536 -0.714523
LeftToes  -31.2377 2.37847e-007 4.89147e-008
148
root  13.3582 30.6799 6.55284 30.3507 84.2399 19.7462
RightUpLeg  -30.5701 -27.3575 -14.0219
RightLeg  45.2118 -8.91871 -7.84551
RightFoot  -3.32589 0.0421785 1.83068
RightToes  -35.6355 -0.18459 -0.289164
Spine  12.0752 0.520453 0.482862
Spine1  20.3308 2.90044 -2.12623
HEad  38.5286 -7.20256 9.30107
LeftShoulder1  0 -2.42657e-020 -4.95415e-022
LeftArm  -20.2558 -15.1328 -89.5765
LeftForeArm  15.8512 -32.9837 -6.56527
LeftHand  0.161072 -2.76458 -7.05524
RightShoulder  0 2.42657e-020 1.07489e-018
RightArm  -43.5166 27.0275 84.3425
RightForeArm  75.5733 10.6433 1.81476
RightHand  1.16051 20.2347 6.86909
LeftUpLeg  -33.4668 21.7911 12.3702
LeftLeg  33.886 0.18707 0.104592
LeftFoot  -8.17616 -0.0590207 -0.825784
LeftToes  -26.7587 2.37847e-007 4.89147e-008
149
root  13.4592 31.0052 8.32866 10.6054 83.2598 0.823669
RightUpLeg  -29.2004 -27.1205 -9.55418
RightLeg  44.2669 -7.88458 -6.72886
RightFoot  -5.10706 0.0627917 1.7857
RightToes  -34.4947 -0.176065 -0.28196
Spine  10.7499 0.413684 0.882192
Spine1  18.711 2.2655 -1.26272
HEad  39.5003 -3.59177 6.97534
LeftShoulder1  0 -2.42657e-020 -4.95415e-022
LeftArm  -26.0431 -11.1082 -86.6942
LeftForeArm  15.1331 -37.4132 -7.7484
LeftHand  0.195918 -3.04586 -7.74656
RightShoulder  0 2.42657e-020 1.07489e-018
RightArm  -26.0471 17.6061 85.5435
RightForeArm  57.8973 19.0669 3.44864
RightHand  0.531428 23.0651 2.97487
LeftUpLeg  -27.5354 18.3174 18.0897
LeftLeg  28.1325 3.68049 1.66841
LeftFoot  -12.6135 -0.169505 -1.53362
LeftToes  -20.0637 2.37847e-007 4.89147e-008
150
root  13.6262 31.301 10.0804 2.36984 80.8655 -6.58273
RightUpLeg  -27.1894 -25.9652 -6.01256
RightLeg  42.3798 -7.19475 -5.75294
RightFoot  -6.92284 0.0813991 1.7234
RightToes  -33.9486 -0.172035 -0.278451
Spine  9.26376 0.397623 0.829972
Spine1  16.6745 2.08262 -1.13266
HEad  40.5621 -0.555911 5.2566
LeftShoulder1  0 -2.42657e-020 -4.95415e-022
LeftArm  -31.2903 -4.35042 -83.663
LeftForeArm  17.9739 -47.1654 -10.9769
LeftHand  0.317613 -3.57315 -10.5463
RightShoulder  0 2.42657e-020 1.07489e-018
RightArm  -18.9064 8.73599 86.1967
RightForeArm  48.58 25.8306 4.86837
RightHand  0.0125839 24.8963 0.427123
LeftUpLeg  -20.9164 11.1915 22.6461
LeftLeg  22.1476 7.90788 2.62786
LeftFoot  -16.7499 -0.427136 -2.90074
LeftToes  -6.03747 2.37847e-007 4.89147e-008
151
root  13.8386 31.5335 11.5944 2.70576 78.7711 -5.52386
RightUpLeg  -25.5421 -25.1393 -4.02083
RightLeg  41.373 -6.44314 -4.97772
RightFoot  -8.742 0.096922 1.64563
RightToes  -32.9831 -0.164993 -0.272155
Spine  8.10076 -0.368591 0.378617
Spine1  14.8186 0.0750506 -1.03657
HEad  41.4452 1.15626 4.20448
LeftShoulder1  0 -2.42657e-020 -4.95415e-022
LeftArm  -35.2898 5.24806 -80.6626
LeftForeArm  22.7124 -60.4685 -18.2053
LeftHand  0.496242 -3.90611 -14.8711
RightShoulder  0 2.42657e-020 1.07489e-018
RightArm  -17.6035 1.44127 87.5001
RightForeArm  41.3208 31.726 6.24369
RightHand  0.473243 24.736 2.52858
LeftUpLeg  -17.5187 3.63532 23.2003
LeftLeg  21.7659 8.5588 2.77969
LeftFoot  -16.3472 -0.412808 -2.87349
LeftToes  -0.753022 2.37847e-007 4.89147e-008
152
root  14.1873 31.8325 12.9315 1.89394 76.412 -4.75778
RightUpLeg  -21.8449 -21.8215 -2.81654
RightLeg  38.9719 -7.4955 -5.29261
RightFoot  -10.0098 0.128731 1.84755
RightToes  -30.3056 -0.146031 -0.254085
Spine  7.48967 -0.789541 0.0617853
Spine1  13.9818 -1.19953 -0.778996
HEad  41.4471 1.37432 3.15777
LeftShoulder1  0 -2.42657e-020 -4.95415e-022
LeftArm  -37.431 15.2299 -79.5899
LeftForeArm  34.3304 -72.1495 -33.4441
LeftHand  0.547238 -3.57397 -17.8094
RightShoulder  0 2.42657e-020 1.07489e-018
RightArm  -19.6742 -4.97345 88.4153
RightForeArm  38.976 36.5399 7.5007
RightHand  0.935783 24.9766 4.59444
LeftUpLeg  -15.5106 -0.773619 20.9818
LeftLeg  26.2892 4.09338 1.6994
LeftFoot  -14.0796 -0.155911 -1.2625
LeftToes  -9.40539 2.37847e-007 4.89147e-008
